<mxfile host="app.diagrams.net" modified="2022-05-05T15:12:35.912Z" agent="5.0 (Macintosh; Intel Mac OS X 10_15_7) AppleWebKit/537.36 (KHTML, like Gecko) Chrome/100.0.4896.127 Safari/537.36" etag="rxfpP8rmstdqNweth9S1" version="18.0.0" type="github">
  <diagram id="B095lPG-_4MU9BpSfTT3" name="Page-1">
    <mxGraphModel dx="631" dy="365" grid="1" gridSize="10" guides="1" tooltips="1" connect="1" arrows="1" fold="1" page="1" pageScale="1" pageWidth="850" pageHeight="1100" math="0" shadow="0">
      <root>
        <mxCell id="0" />
        <mxCell id="1" parent="0" />
        <mxCell id="uYIiVFCoQzqRn4Q6k0h5-3" value="STM-32 F401&lt;br&gt;Micro controller" style="rounded=1;whiteSpace=wrap;html=1;labelBackgroundColor=#FFFCFC;fontColor=#111112;" parent="1" vertex="1">
          <mxGeometry x="290" y="130" width="230" height="190" as="geometry" />
        </mxCell>
        <mxCell id="uYIiVFCoQzqRn4Q6k0h5-4" value="HC-SR04&lt;br&gt;Ultrasonic" style="rounded=1;whiteSpace=wrap;html=1;labelBackgroundColor=#FFFCFC;fontColor=#111112;" parent="1" vertex="1">
          <mxGeometry x="610" y="130" width="120" height="60" as="geometry" />
        </mxCell>
        <mxCell id="uYIiVFCoQzqRn4Q6k0h5-5" value="MPU-9250" style="rounded=1;whiteSpace=wrap;html=1;labelBackgroundColor=#FFFCFC;fontColor=#111112;" parent="1" vertex="1">
          <mxGeometry x="610" y="200" width="110" height="70" as="geometry" />
        </mxCell>
        <mxCell id="uYIiVFCoQzqRn4Q6k0h5-6" value="Matek M8Q-5883 GPS" style="rounded=1;whiteSpace=wrap;html=1;labelBackgroundColor=#FFFCFC;fontColor=#111112;" parent="1" vertex="1">
          <mxGeometry x="370" y="370" width="120" height="60" as="geometry" />
        </mxCell>
        <mxCell id="L6UKvNgGxVhYIC0zaSP9-7" style="edgeStyle=none;rounded=0;orthogonalLoop=1;jettySize=auto;html=1;exitX=0.5;exitY=1;exitDx=0;exitDy=0;endArrow=none;endFill=0;entryX=0;entryY=0.5;entryDx=0;entryDy=0;fillColor=#f8cecc;strokeColor=#b85450;" parent="1" source="tK23bqZ6_Czorj_P_Bk--1" target="tK23bqZ6_Czorj_P_Bk--6" edge="1">
          <mxGeometry relative="1" as="geometry">
            <mxPoint x="300" y="110" as="targetPoint" />
            <Array as="points">
              <mxPoint x="240" y="228" />
              <mxPoint x="240" y="65" />
            </Array>
          </mxGeometry>
        </mxCell>
        <mxCell id="tK23bqZ6_Czorj_P_Bk--1" value="&lt;p style=&quot;box-sizing: border-box ; margin-top: 0px ; margin-bottom: 0.48em ; line-height: 1.28em ; color: rgb(51 , 62 , 72)&quot;&gt;&lt;font style=&quot;line-height: 1.2 ; font-size: 12px&quot;&gt;ORANGE 1800mAh 3S&lt;/font&gt;&lt;/p&gt;" style="rounded=1;whiteSpace=wrap;html=1;rotation=-90;" parent="1" vertex="1">
          <mxGeometry x="72.5" y="197.5" width="120" height="60" as="geometry" />
        </mxCell>
        <mxCell id="L6UKvNgGxVhYIC0zaSP9-6" style="edgeStyle=none;rounded=0;orthogonalLoop=1;jettySize=auto;html=1;exitX=0.5;exitY=0;exitDx=0;exitDy=0;endArrow=none;endFill=0;fillColor=#f8cecc;strokeColor=#b85450;" parent="1" source="tK23bqZ6_Czorj_P_Bk--5" edge="1">
          <mxGeometry relative="1" as="geometry">
            <mxPoint x="240" y="220" as="targetPoint" />
          </mxGeometry>
        </mxCell>
        <mxCell id="tK23bqZ6_Czorj_P_Bk--5" value="Buck converter" style="rounded=1;whiteSpace=wrap;html=1;align=center;" parent="1" vertex="1">
          <mxGeometry x="190" y="350" width="100" height="60" as="geometry" />
        </mxCell>
        <mxCell id="tK23bqZ6_Czorj_P_Bk--6" value="VNH3SP30 Motor Driver" style="rounded=1;whiteSpace=wrap;html=1;" parent="1" vertex="1">
          <mxGeometry x="310" y="30" width="180" height="70" as="geometry" />
        </mxCell>
        <mxCell id="tK23bqZ6_Czorj_P_Bk--7" value="Johnson Grade A 300rpm" style="rounded=1;whiteSpace=wrap;html=1;" parent="1" vertex="1">
          <mxGeometry x="580" y="20" width="100" height="40" as="geometry" />
        </mxCell>
        <mxCell id="tK23bqZ6_Czorj_P_Bk--11" value="" style="endArrow=none;html=1;rounded=0;exitX=0.478;exitY=0.002;exitDx=0;exitDy=0;exitPerimeter=0;" parent="1" source="uYIiVFCoQzqRn4Q6k0h5-3" edge="1">
          <mxGeometry width="50" height="50" relative="1" as="geometry">
            <mxPoint x="400" y="130" as="sourcePoint" />
            <mxPoint x="400" y="100" as="targetPoint" />
          </mxGeometry>
        </mxCell>
        <mxCell id="tK23bqZ6_Czorj_P_Bk--12" value="" style="endArrow=none;html=1;rounded=0;entryX=0.013;entryY=0.44;entryDx=0;entryDy=0;entryPerimeter=0;" parent="1" edge="1">
          <mxGeometry width="50" height="50" relative="1" as="geometry">
            <mxPoint x="490" y="90" as="sourcePoint" />
            <mxPoint x="580.9099999999999" y="89.80000000000001" as="targetPoint" />
          </mxGeometry>
        </mxCell>
        <mxCell id="tK23bqZ6_Czorj_P_Bk--13" value="" style="endArrow=none;html=1;rounded=0;entryX=0.013;entryY=0.44;entryDx=0;entryDy=0;entryPerimeter=0;" parent="1" edge="1">
          <mxGeometry width="50" height="50" relative="1" as="geometry">
            <mxPoint x="489.9999999999999" y="40.2" as="sourcePoint" />
            <mxPoint x="580.91" y="40.000000000000014" as="targetPoint" />
            <Array as="points">
              <mxPoint x="530" y="40.2" />
            </Array>
          </mxGeometry>
        </mxCell>
        <mxCell id="tK23bqZ6_Czorj_P_Bk--15" value="" style="endArrow=none;html=1;rounded=0;entryX=0.013;entryY=0.44;entryDx=0;entryDy=0;entryPerimeter=0;" parent="1" edge="1">
          <mxGeometry width="50" height="50" relative="1" as="geometry">
            <mxPoint x="519.9999999999999" y="159.88" as="sourcePoint" />
            <mxPoint x="610.91" y="159.68" as="targetPoint" />
          </mxGeometry>
        </mxCell>
        <mxCell id="tK23bqZ6_Czorj_P_Bk--16" value="" style="endArrow=none;html=1;rounded=0;entryX=0.013;entryY=0.44;entryDx=0;entryDy=0;entryPerimeter=0;" parent="1" edge="1">
          <mxGeometry width="50" height="50" relative="1" as="geometry">
            <mxPoint x="519.9999999999999" y="234.88" as="sourcePoint" />
            <mxPoint x="610.91" y="234.68" as="targetPoint" />
          </mxGeometry>
        </mxCell>
        <mxCell id="tK23bqZ6_Czorj_P_Bk--17" value="" style="endArrow=none;html=1;rounded=0;entryX=0.25;entryY=0;entryDx=0;entryDy=0;exitX=0.478;exitY=1;exitDx=0;exitDy=0;exitPerimeter=0;" parent="1" source="uYIiVFCoQzqRn4Q6k0h5-3" target="uYIiVFCoQzqRn4Q6k0h5-6" edge="1">
          <mxGeometry width="50" height="50" relative="1" as="geometry">
            <mxPoint x="400" y="330" as="sourcePoint" />
            <mxPoint x="490" y="340" as="targetPoint" />
          </mxGeometry>
        </mxCell>
        <mxCell id="tK23bqZ6_Czorj_P_Bk--22" value="" style="endArrow=none;html=1;rounded=0;entryX=1;entryY=0.5;entryDx=0;entryDy=0;fillColor=#f8cecc;strokeColor=#b85450;" parent="1" target="tK23bqZ6_Czorj_P_Bk--5" edge="1">
          <mxGeometry width="50" height="50" relative="1" as="geometry">
            <mxPoint x="340" y="320" as="sourcePoint" />
            <mxPoint x="340" y="380" as="targetPoint" />
            <Array as="points">
              <mxPoint x="340" y="380" />
            </Array>
          </mxGeometry>
        </mxCell>
        <mxCell id="L6UKvNgGxVhYIC0zaSP9-1" value="Johnson Grade A 300rpm" style="rounded=1;whiteSpace=wrap;html=1;" parent="1" vertex="1">
          <mxGeometry x="580" y="70" width="100" height="40" as="geometry" />
        </mxCell>
        <mxCell id="xHsixADJAXbiIO79xO2_-1" value="SiK 433 Mhz 100mW" style="rounded=1;whiteSpace=wrap;html=1;" vertex="1" parent="1">
          <mxGeometry x="620" y="290" width="120" height="60" as="geometry" />
        </mxCell>
        <mxCell id="xHsixADJAXbiIO79xO2_-10" value="" style="endArrow=none;html=1;rounded=0;exitX=0.994;exitY=0.889;exitDx=0;exitDy=0;exitPerimeter=0;" edge="1" parent="1" source="uYIiVFCoQzqRn4Q6k0h5-3">
          <mxGeometry width="50" height="50" relative="1" as="geometry">
            <mxPoint x="570" y="350" as="sourcePoint" />
            <mxPoint x="620" y="300" as="targetPoint" />
            <Array as="points">
              <mxPoint x="600" y="300" />
            </Array>
          </mxGeometry>
        </mxCell>
        <mxCell id="xHsixADJAXbiIO79xO2_-13" value="" style="endArrow=none;html=1;rounded=0;fillColor=#f8cecc;strokeColor=#b85450;" edge="1" parent="1">
          <mxGeometry width="50" height="50" relative="1" as="geometry">
            <mxPoint x="260" y="410" as="sourcePoint" />
            <mxPoint x="400" y="450" as="targetPoint" />
            <Array as="points">
              <mxPoint x="260" y="450" />
            </Array>
          </mxGeometry>
        </mxCell>
        <mxCell id="xHsixADJAXbiIO79xO2_-14" value="" style="endArrow=none;html=1;rounded=0;entryX=1;entryY=0.5;entryDx=0;entryDy=0;fillColor=#f8cecc;strokeColor=#b85450;" edge="1" parent="1">
          <mxGeometry width="50" height="50" relative="1" as="geometry">
            <mxPoint x="450" y="430" as="sourcePoint" />
            <mxPoint x="400" y="450" as="targetPoint" />
            <Array as="points">
              <mxPoint x="450" y="450" />
            </Array>
          </mxGeometry>
        </mxCell>
      </root>
    </mxGraphModel>
  </diagram>
</mxfile>
